<mxfile host="app.diagrams.net" modified="2022-08-06T00:13:37.550Z" agent="5.0 (Macintosh; Intel Mac OS X 10_15_7) AppleWebKit/537.36 (KHTML, like Gecko) Chrome/104.0.0.0 Safari/537.36" etag="3qg82iG9ww6U0Yarkjw9" version="20.2.2" type="github">
  <diagram id="3228e29e-7158-1315-38df-8450db1d8a1d" name="Page-1">
    <mxGraphModel dx="1298" dy="998" grid="0" gridSize="10" guides="1" tooltips="1" connect="1" arrows="1" fold="1" page="1" pageScale="1" pageWidth="850" pageHeight="300" background="#EFF1F3" math="0" shadow="0">
      <root>
        <mxCell id="0" />
        <mxCell id="1" parent="0" />
        <mxCell id="Zxyhw3o_makbFYxT9f12-17" value="" style="rounded=1;whiteSpace=wrap;html=1;dashed=1;strokeWidth=5;fillColor=none;" parent="1" vertex="1">
          <mxGeometry x="158" y="-83" width="528" height="539" as="geometry" />
        </mxCell>
        <mxCell id="Zxyhw3o_makbFYxT9f12-7" value="" style="rounded=1;whiteSpace=wrap;html=1;dashed=1;strokeWidth=5;fillColor=none;" parent="1" vertex="1">
          <mxGeometry x="158" y="-266" width="534" height="170" as="geometry" />
        </mxCell>
        <mxCell id="Zxyhw3o_makbFYxT9f12-1" value="&lt;font style=&quot;font-size: 18px&quot;&gt;ping数据&lt;/font&gt;" style="rounded=1;whiteSpace=wrap;html=1;strokeColor=none;fillColor=#4A919B;" parent="1" vertex="1">
          <mxGeometry x="244" y="-200" width="87.5" height="38" as="geometry" />
        </mxCell>
        <mxCell id="Zxyhw3o_makbFYxT9f12-2" value="&lt;font style=&quot;font-size: 18px&quot;&gt;socket接口&lt;/font&gt;" style="rounded=1;whiteSpace=wrap;html=1;strokeColor=none;labelBackgroundColor=none;fillColor=#FDD276;" parent="1" vertex="1">
          <mxGeometry x="183.5" y="-103" width="483" height="26" as="geometry" />
        </mxCell>
        <mxCell id="Zxyhw3o_makbFYxT9f12-3" value="&lt;span style=&quot;color: rgb(51, 51, 51); font-family: &amp;quot;open sans&amp;quot;, &amp;quot;clear sans&amp;quot;, &amp;quot;helvetica neue&amp;quot;, helvetica, arial, sans-serif;&quot;&gt;&lt;font style=&quot;font-size: 18px&quot;&gt;sendmsg&lt;/font&gt;&lt;/span&gt;" style="rounded=1;whiteSpace=wrap;html=1;strokeColor=none;fillColor=#9AC7BF;labelBackgroundColor=none;" parent="1" vertex="1">
          <mxGeometry x="224" y="-83" width="86" height="36" as="geometry" />
        </mxCell>
        <mxCell id="Zxyhw3o_makbFYxT9f12-4" value="&lt;span style=&quot;color: rgb(51, 51, 51); font-family: &amp;quot;open sans&amp;quot;, &amp;quot;clear sans&amp;quot;, &amp;quot;helvetica neue&amp;quot;, helvetica, arial, sans-serif;&quot;&gt;&lt;font style=&quot;font-size: 18px&quot;&gt;socket&lt;/font&gt;&lt;/span&gt;" style="rounded=1;whiteSpace=wrap;html=1;strokeColor=none;fillColor=#9AC7BF;labelBackgroundColor=none;" parent="1" vertex="1">
          <mxGeometry x="224" y="-127" width="86" height="36" as="geometry" />
        </mxCell>
        <mxCell id="Zxyhw3o_makbFYxT9f12-5" value="&lt;font style=&quot;font-size: 14px&quot;&gt;&lt;span style=&quot;color: rgb(51 , 51 , 51) ; font-family: &amp;#34;open sans&amp;#34; , &amp;#34;clear sans&amp;#34; , &amp;#34;helvetica neue&amp;#34; , &amp;#34;helvetica&amp;#34; , &amp;#34;arial&amp;#34; , sans-serif&quot;&gt;socket&lt;/span&gt;&lt;span style=&quot;color: rgb(51 , 51 , 51) ; font-family: &amp;#34;open sans&amp;#34; , &amp;#34;clear sans&amp;#34; , &amp;#34;helvetica neue&amp;#34; , &amp;#34;helvetica&amp;#34; , &amp;#34;arial&amp;#34; , sans-serif&quot;&gt;&lt;font&gt;(AF_INET, &lt;br&gt;SOCK_RAW, &lt;br&gt;IPPROTO_ICMP)&lt;/font&gt;&lt;/span&gt;&lt;/font&gt;" style="text;html=1;strokeColor=none;fillColor=none;align=center;verticalAlign=middle;whiteSpace=wrap;rounded=0;" parent="1" vertex="1">
          <mxGeometry x="43" y="-147" width="109" height="61" as="geometry" />
        </mxCell>
        <mxCell id="Zxyhw3o_makbFYxT9f12-8" value="&lt;font style=&quot;font-size: 18px&quot;&gt;tcp数据&lt;/font&gt;" style="rounded=1;whiteSpace=wrap;html=1;strokeColor=none;fillColor=#4A919B;" parent="1" vertex="1">
          <mxGeometry x="525" y="-192.25" width="83" height="37.25" as="geometry" />
        </mxCell>
        <mxCell id="Zxyhw3o_makbFYxT9f12-9" value="&lt;div style=&quot;font-family: &amp;quot;menlo&amp;quot; , &amp;quot;monaco&amp;quot; , &amp;quot;courier new&amp;quot; , monospace ; line-height: 23px&quot;&gt;&lt;span style=&quot;&quot;&gt;&lt;font style=&quot;font-size: 18px&quot;&gt;sendto&lt;/font&gt;&lt;/span&gt;&lt;/div&gt;" style="rounded=1;whiteSpace=wrap;html=1;strokeColor=none;fillColor=#9AC7BF;labelBackgroundColor=none;" parent="1" vertex="1">
          <mxGeometry x="524" y="-83.5" width="86" height="36" as="geometry" />
        </mxCell>
        <mxCell id="Zxyhw3o_makbFYxT9f12-11" value="&lt;font style=&quot;font-size: 24px&quot;&gt;用户态&lt;/font&gt;" style="text;html=1;strokeColor=none;fillColor=none;align=center;verticalAlign=middle;whiteSpace=wrap;rounded=0;dashed=1;" parent="1" vertex="1">
          <mxGeometry x="349" y="-240" width="132.5" height="20" as="geometry" />
        </mxCell>
        <mxCell id="Zxyhw3o_makbFYxT9f12-12" value="&lt;font style=&quot;font-size: 24px&quot;&gt;内核态&lt;/font&gt;" style="text;html=1;strokeColor=none;align=center;verticalAlign=middle;whiteSpace=wrap;rounded=0;dashed=1;labelBackgroundColor=none;" parent="1" vertex="1">
          <mxGeometry x="370" y="-57" width="102" height="20" as="geometry" />
        </mxCell>
        <mxCell id="Zxyhw3o_makbFYxT9f12-14" value="&lt;span style=&quot;color: rgb(51, 51, 51); font-family: &amp;quot;open sans&amp;quot;, &amp;quot;clear sans&amp;quot;, &amp;quot;helvetica neue&amp;quot;, helvetica, arial, sans-serif; font-size: 18px;&quot;&gt;&lt;font style=&quot;font-size: 18px&quot;&gt;sock_sendmsg&lt;/font&gt;&lt;/span&gt;" style="rounded=1;whiteSpace=wrap;html=1;strokeColor=none;fontSize=18;fillColor=#9AC7BF;labelBackgroundColor=none;" parent="1" vertex="1">
          <mxGeometry x="349" y="-25" width="135" height="52" as="geometry" />
        </mxCell>
        <mxCell id="Zxyhw3o_makbFYxT9f12-16" value="&lt;span style=&quot;color: rgb(51 , 51 , 51) ; font-family: &amp;#34;open sans&amp;#34; , &amp;#34;clear sans&amp;#34; , &amp;#34;helvetica neue&amp;#34; , &amp;#34;helvetica&amp;#34; , &amp;#34;arial&amp;#34; , sans-serif&quot;&gt;&lt;font style=&quot;font-size: 14px&quot;&gt;socket(AF_INET, SOCK_STREAM, 0);&lt;/font&gt;&lt;/span&gt;" style="text;html=1;strokeColor=none;align=center;verticalAlign=middle;whiteSpace=wrap;rounded=0;dashed=1;labelBackgroundColor=none;" parent="1" vertex="1">
          <mxGeometry x="743" y="-119" width="40" height="20" as="geometry" />
        </mxCell>
        <mxCell id="Zxyhw3o_makbFYxT9f12-18" value="&lt;span style=&quot;color: rgb(51, 51, 51); font-family: &amp;quot;open sans&amp;quot;, &amp;quot;clear sans&amp;quot;, &amp;quot;helvetica neue&amp;quot;, helvetica, arial, sans-serif; font-size: 18px;&quot;&gt;&lt;font style=&quot;font-size: 18px&quot;&gt;传输层&lt;/font&gt;&lt;/span&gt;" style="rounded=1;whiteSpace=wrap;html=1;strokeColor=none;fontSize=18;fillColor=#9AC7BF;labelBackgroundColor=none;" parent="1" vertex="1">
          <mxGeometry x="349" y="47" width="135" height="52" as="geometry" />
        </mxCell>
        <mxCell id="Zxyhw3o_makbFYxT9f12-19" value="&lt;span style=&quot;color: rgb(51, 51, 51); font-family: &amp;quot;open sans&amp;quot;, &amp;quot;clear sans&amp;quot;, &amp;quot;helvetica neue&amp;quot;, helvetica, arial, sans-serif; font-size: 18px;&quot;&gt;网络层&lt;/span&gt;" style="rounded=1;whiteSpace=wrap;html=1;strokeColor=none;fontSize=18;fillColor=#9AC7BF;labelBackgroundColor=none;" parent="1" vertex="1">
          <mxGeometry x="349" y="119" width="135" height="52" as="geometry" />
        </mxCell>
        <mxCell id="Zxyhw3o_makbFYxT9f12-20" value="" style="shape=flexArrow;endArrow=classic;html=1;strokeColor=none;fillColor=#9AC7BF;labelBackgroundColor=none;" parent="1" edge="1">
          <mxGeometry width="50" height="50" relative="1" as="geometry">
            <mxPoint x="685" y="-114.00000000000006" as="sourcePoint" />
            <mxPoint x="630" y="-114" as="targetPoint" />
          </mxGeometry>
        </mxCell>
        <mxCell id="Zxyhw3o_makbFYxT9f12-21" value="&lt;span style=&quot;color: rgb(51, 51, 51); font-family: &amp;quot;open sans&amp;quot;, &amp;quot;clear sans&amp;quot;, &amp;quot;helvetica neue&amp;quot;, helvetica, arial, sans-serif; font-size: 18px;&quot;&gt;数据链路层&lt;/span&gt;" style="rounded=1;whiteSpace=wrap;html=1;strokeColor=none;fontSize=18;fillColor=#9AC7BF;labelBackgroundColor=none;" parent="1" vertex="1">
          <mxGeometry x="349" y="197" width="135" height="52" as="geometry" />
        </mxCell>
        <mxCell id="Zxyhw3o_makbFYxT9f12-22" value="" style="pointerEvents=1;shadow=0;dashed=0;html=1;strokeColor=none;labelPosition=center;verticalLabelPosition=bottom;verticalAlign=top;align=center;outlineConnect=0;shape=mxgraph.veeam2.network_card;fillColor=#535E80;" parent="1" vertex="1">
          <mxGeometry x="328" y="491" width="169" height="95" as="geometry" />
        </mxCell>
        <mxCell id="Zxyhw3o_makbFYxT9f12-25" value="" style="ellipse;whiteSpace=wrap;html=1;aspect=fixed;dashed=1;fontSize=18;strokeWidth=30;fillColor=none;strokeColor=#4A919B;rotation=45;dashPattern=1 1;" parent="1" vertex="1">
          <mxGeometry x="360.25" y="316" width="110" height="110" as="geometry" />
        </mxCell>
        <mxCell id="Zxyhw3o_makbFYxT9f12-26" value="" style="ellipse;whiteSpace=wrap;html=1;aspect=fixed;dashed=1;fontSize=18;strokeWidth=30;fillColor=none;rotation=75;dashPattern=1 1;strokeColor=#535E80;" parent="1" vertex="1">
          <mxGeometry x="360.25" y="316" width="110" height="110" as="geometry" />
        </mxCell>
        <mxCell id="Zxyhw3o_makbFYxT9f12-27" value="ring buffer" style="text;html=1;strokeColor=none;fillColor=none;align=center;verticalAlign=middle;whiteSpace=wrap;rounded=0;dashed=1;dashPattern=1 1;fontSize=18;" parent="1" vertex="1">
          <mxGeometry x="363.5" y="272" width="106" height="24" as="geometry" />
        </mxCell>
        <mxCell id="Zxyhw3o_makbFYxT9f12-28" value="网卡" style="text;html=1;strokeColor=none;fillColor=none;align=center;verticalAlign=middle;whiteSpace=wrap;rounded=0;dashed=1;dashPattern=1 1;fontSize=18;" parent="1" vertex="1">
          <mxGeometry x="378" y="475" width="106" height="24" as="geometry" />
        </mxCell>
        <mxCell id="Zxyhw3o_makbFYxT9f12-6" value="" style="shape=flexArrow;endArrow=classic;html=1;strokeColor=none;fillColor=#9AC7BF;labelBackgroundColor=none;" parent="1" edge="1">
          <mxGeometry width="50" height="50" relative="1" as="geometry">
            <mxPoint x="156" y="-116.92000000000002" as="sourcePoint" />
            <mxPoint x="206" y="-116.92000000000002" as="targetPoint" />
          </mxGeometry>
        </mxCell>
        <mxCell id="Zxyhw3o_makbFYxT9f12-40" value="&lt;span style=&quot;color: rgb(51, 51, 51); font-family: &amp;quot;open sans&amp;quot;, &amp;quot;clear sans&amp;quot;, &amp;quot;helvetica neue&amp;quot;, helvetica, arial, sans-serif;&quot;&gt;&lt;font style=&quot;font-size: 18px&quot;&gt;socket&lt;/font&gt;&lt;/span&gt;" style="rounded=1;whiteSpace=wrap;html=1;strokeColor=none;fillColor=#9AC7BF;labelBackgroundColor=none;" parent="1" vertex="1">
          <mxGeometry x="525" y="-128" width="86" height="36" as="geometry" />
        </mxCell>
        <mxCell id="Zxyhw3o_makbFYxT9f12-43" value="" style="endArrow=none;dashed=1;html=1;labelBackgroundColor=none;fontSize=18;fontColor=#9AC7BF;fillColor=#9AC7BF;startArrow=classic;startFill=1;strokeWidth=6;strokeColor=#808080;" parent="1" edge="1">
          <mxGeometry width="50" height="50" relative="1" as="geometry">
            <mxPoint x="311.5" y="469" as="sourcePoint" />
            <mxPoint x="309.5" y="-155" as="targetPoint" />
          </mxGeometry>
        </mxCell>
        <mxCell id="Zxyhw3o_makbFYxT9f12-44" value="" style="endArrow=classic;dashed=1;html=1;labelBackgroundColor=none;fontSize=18;fontColor=#9AC7BF;strokeWidth=6;fillColor=#9AC7BF;endFill=1;" parent="1" edge="1">
          <mxGeometry width="50" height="50" relative="1" as="geometry">
            <mxPoint x="537" y="544" as="sourcePoint" />
            <mxPoint x="671" y="542" as="targetPoint" />
          </mxGeometry>
        </mxCell>
        <mxCell id="Zxyhw3o_makbFYxT9f12-46" value="" style="html=1;outlineConnect=0;gradientColor=none;gradientDirection=north;strokeWidth=2;shape=mxgraph.networks.cloud;fontColor=#ffffff;dashed=1;dashPattern=1 1;labelBackgroundColor=none;fontSize=18;strokeColor=none;fillColor=#535E80;" parent="1" vertex="1">
          <mxGeometry x="702" y="509" width="117" height="65" as="geometry" />
        </mxCell>
        <mxCell id="Zxyhw3o_makbFYxT9f12-47" value="网络" style="text;html=1;strokeColor=none;fillColor=none;align=center;verticalAlign=middle;whiteSpace=wrap;rounded=0;dashed=1;dashPattern=1 1;fontSize=18;" parent="1" vertex="1">
          <mxGeometry x="710" y="479" width="106" height="24" as="geometry" />
        </mxCell>
        <mxCell id="Zxyhw3o_makbFYxT9f12-48" value="&lt;font style=&quot;font-size: 18px&quot;&gt;ping数据&lt;/font&gt;" style="rounded=1;whiteSpace=wrap;html=1;strokeColor=none;fillColor=#4A919B;" parent="1" vertex="1">
          <mxGeometry x="240.5" y="126" width="87.5" height="38" as="geometry" />
        </mxCell>
        <mxCell id="Zxyhw3o_makbFYxT9f12-49" value="&lt;font style=&quot;font-size: 18px&quot;&gt;ICMP头&lt;/font&gt;" style="rounded=1;whiteSpace=wrap;html=1;strokeColor=none;fillColor=#F19C99;" parent="1" vertex="1">
          <mxGeometry x="161" y="126" width="79.5" height="38" as="geometry" />
        </mxCell>
        <mxCell id="Zxyhw3o_makbFYxT9f12-53" value="&lt;font style=&quot;font-size: 18px&quot;&gt;IP头&lt;/font&gt;" style="rounded=1;whiteSpace=wrap;html=1;strokeColor=none;fillColor=#F19C99;" parent="1" vertex="1">
          <mxGeometry x="81.5" y="126" width="79.5" height="38" as="geometry" />
        </mxCell>
        <mxCell id="Zxyhw3o_makbFYxT9f12-54" value="&lt;font style=&quot;font-size: 18px&quot;&gt;ping数据&lt;/font&gt;" style="rounded=1;whiteSpace=wrap;html=1;strokeColor=none;fillColor=#4A919B;" parent="1" vertex="1">
          <mxGeometry x="244" y="206" width="87.5" height="38" as="geometry" />
        </mxCell>
        <mxCell id="Zxyhw3o_makbFYxT9f12-55" value="&lt;font style=&quot;font-size: 18px&quot;&gt;ICMP头&lt;/font&gt;" style="rounded=1;whiteSpace=wrap;html=1;strokeColor=none;fillColor=#F19C99;" parent="1" vertex="1">
          <mxGeometry x="164.5" y="206" width="79.5" height="38" as="geometry" />
        </mxCell>
        <mxCell id="Zxyhw3o_makbFYxT9f12-56" value="&lt;font style=&quot;font-size: 18px&quot;&gt;IP头&lt;/font&gt;" style="rounded=1;whiteSpace=wrap;html=1;strokeColor=none;fillColor=#F19C99;" parent="1" vertex="1">
          <mxGeometry x="85" y="206" width="79.5" height="38" as="geometry" />
        </mxCell>
        <mxCell id="Zxyhw3o_makbFYxT9f12-57" value="&lt;font style=&quot;font-size: 18px&quot;&gt;MAC头&lt;/font&gt;" style="rounded=1;whiteSpace=wrap;html=1;strokeColor=none;fillColor=#999999;" parent="1" vertex="1">
          <mxGeometry x="5.5" y="206" width="79.5" height="38" as="geometry" />
        </mxCell>
        <mxCell id="Zxyhw3o_makbFYxT9f12-58" value="&lt;font style=&quot;font-size: 18px&quot;&gt;数据&lt;/font&gt;" style="rounded=1;whiteSpace=wrap;html=1;strokeColor=none;fillColor=#4A919B;" parent="1" vertex="1">
          <mxGeometry x="737" y="123" width="87.5" height="38" as="geometry" />
        </mxCell>
        <mxCell id="Zxyhw3o_makbFYxT9f12-59" value="&lt;font style=&quot;font-size: 18px&quot;&gt;TCP头&lt;/font&gt;" style="rounded=1;whiteSpace=wrap;html=1;strokeColor=none;fillColor=#6F7DAB;" parent="1" vertex="1">
          <mxGeometry x="657.5" y="123" width="79.5" height="38" as="geometry" />
        </mxCell>
        <mxCell id="Zxyhw3o_makbFYxT9f12-60" value="&lt;font style=&quot;font-size: 18px&quot;&gt;IP头&lt;/font&gt;" style="rounded=1;whiteSpace=wrap;html=1;strokeColor=none;fillColor=#F19C99;" parent="1" vertex="1">
          <mxGeometry x="578" y="123" width="79.5" height="38" as="geometry" />
        </mxCell>
        <mxCell id="Zxyhw3o_makbFYxT9f12-61" value="&lt;font style=&quot;font-size: 18px&quot;&gt;数据&lt;/font&gt;" style="rounded=1;whiteSpace=wrap;html=1;strokeColor=none;fillColor=#4A919B;" parent="1" vertex="1">
          <mxGeometry x="740.5" y="203" width="87.5" height="38" as="geometry" />
        </mxCell>
        <mxCell id="Zxyhw3o_makbFYxT9f12-62" value="&lt;span style=&quot;font-size: 18px&quot;&gt;TCP头&lt;/span&gt;" style="rounded=1;whiteSpace=wrap;html=1;strokeColor=none;fillColor=#6F7DAB;" parent="1" vertex="1">
          <mxGeometry x="661" y="203" width="79.5" height="38" as="geometry" />
        </mxCell>
        <mxCell id="Zxyhw3o_makbFYxT9f12-63" value="&lt;font style=&quot;font-size: 18px&quot;&gt;IP头&lt;/font&gt;" style="rounded=1;whiteSpace=wrap;html=1;strokeColor=none;fillColor=#F19C99;" parent="1" vertex="1">
          <mxGeometry x="581.5" y="203" width="79.5" height="38" as="geometry" />
        </mxCell>
        <mxCell id="Zxyhw3o_makbFYxT9f12-64" value="&lt;font style=&quot;font-size: 18px&quot;&gt;MAC头&lt;/font&gt;" style="rounded=1;whiteSpace=wrap;html=1;strokeColor=none;fillColor=#999999;" parent="1" vertex="1">
          <mxGeometry x="502" y="203" width="79.5" height="38" as="geometry" />
        </mxCell>
        <mxCell id="Zxyhw3o_makbFYxT9f12-65" value="&lt;font style=&quot;font-size: 18px&quot;&gt;数据&lt;/font&gt;" style="rounded=1;whiteSpace=wrap;html=1;strokeColor=none;fillColor=#4A919B;" parent="1" vertex="1">
          <mxGeometry x="737" y="54" width="87.5" height="38" as="geometry" />
        </mxCell>
        <mxCell id="Zxyhw3o_makbFYxT9f12-66" value="&lt;font style=&quot;font-size: 18px&quot;&gt;TCP头&lt;/font&gt;" style="rounded=1;whiteSpace=wrap;html=1;strokeColor=none;fillColor=#6F7DAB;" parent="1" vertex="1">
          <mxGeometry x="657.5" y="54" width="79.5" height="38" as="geometry" />
        </mxCell>
      </root>
    </mxGraphModel>
  </diagram>
</mxfile>
